<?xml version="1.0" standalone="no"?>
<!DOCTYPE svg PUBLIC "-//W3C//DTD SVG 20010904//EN"
 "http://www.w3.org/TR/2001/REC-SVG-20010904/DTD/svg10.dtd">
<svg version="1.0" xmlns="http://www.w3.org/2000/svg"
 width="24.000000pt" height="24.000000pt" viewBox="0 0 24.000000 24.000000"
 preserveAspectRatio="xMidYMid meet">

<g transform="translate(0.000000,24.000000) scale(0.100000,-0.100000)"
fill="#000000" stroke="none">
<path d="M60 210 c0 -6 28 -10 70 -10 l70 0 0 -50 c0 -28 5 -50 10 -50 7 0 10
22 8 58 l-3 57 -77 3 c-49 2 -78 -1 -78 -8z"/>
<path d="M27 174 c-4 -4 -7 -44 -7 -88 0 -75 1 -79 15 -59 13 18 27 23 78 25
l62 3 0 60 0 60 -70 3 c-39 1 -74 0 -78 -4z m133 -58 l0 -44 -60 -4 -60 -3 0
48 0 47 60 0 60 0 0 -44z"/>
</g>
</svg>
