<?xml version="1.0" standalone="no"?>
<!DOCTYPE svg PUBLIC "-//W3C//DTD SVG 20010904//EN"
 "http://www.w3.org/TR/2001/REC-SVG-20010904/DTD/svg10.dtd">
<svg version="1.0" xmlns="http://www.w3.org/2000/svg"
 width="228.000000pt" height="216.000000pt" viewBox="0 0 228.000000 216.000000"
 preserveAspectRatio="xMidYMid meet">

<g transform="translate(0.000000,216.000000) scale(0.100000,-0.100000)"
fill="#000000" stroke="none">
<path d="M0 1080 l0 -1080 1140 0 1140 0 0 1080 0 1080 -1140 0 -1140 0 0
-1080z m1155 811 c-43 -122 -72 -191 -81 -191 -8 0 -14 5 -14 12 0 17 122 361
133 376 7 8 14 9 20 3 6 -6 -14 -77 -58 -200z m-275 114 c0 -9 -37 -33 -90
-60 -49 -25 -90 -47 -90 -50 0 -3 41 -25 90 -50 53 -27 90 -51 90 -60 0 -8 -5
-15 -11 -15 -14 0 -217 108 -224 119 -8 13 25 36 120 84 98 50 115 55 115 32z
m638 -34 c108 -54 130 -72 110 -89 -22 -17 -204 -112 -216 -112 -7 0 -12 7
-12 15 0 9 37 33 90 60 50 25 90 47 90 50 0 3 -40 25 -90 50 -53 27 -90 51
-90 60 0 23 12 19 118 -34z m-923 -993 c60 -285 112 -518 115 -518 3 0 70 234
149 520 l145 520 142 0 143 0 9 -32 c217 -799 278 -1018 282 -1018 3 0 57 236
120 525 l115 525 161 0 161 0 -75 -307 c-41 -170 -120 -495 -176 -723 l-101
-415 -196 -3 -195 -2 -124 437 c-68 241 -126 442 -130 446 -4 5 -21 -40 -37
-100 -16 -59 -72 -260 -124 -446 l-94 -337 -195 2 -194 3 -176 723 -177 722
171 -2 171 -3 110 -517z"/>
</g>
</svg>
