<?xml version="1.0" standalone="no"?>
<!DOCTYPE svg PUBLIC "-//W3C//DTD SVG 20010904//EN"
 "http://www.w3.org/TR/2001/REC-SVG-20010904/DTD/svg10.dtd">
<svg version="1.0" xmlns="http://www.w3.org/2000/svg"
 width="24.000000pt" height="24.000000pt" viewBox="0 0 24.000000 24.000000"
 preserveAspectRatio="xMidYMid meet">

<g transform="translate(0.000000,24.000000) scale(0.100000,-0.100000)"
fill="#000000" stroke="none">
<path d="M35 218 c-7 -22 -16 -101 -18 -153 l-2 -50 105 0 105 0 -1 50 c-2 71
-13 106 -42 138 -22 23 -33 27 -84 27 -38 0 -60 -4 -63 -12z m117 -20 c2 -15
11 -24 26 -26 16 -3 22 -10 22 -28 0 -37 -33 -64 -80 -64 -57 0 -80 26 -80 90
l0 50 54 0 c49 0 55 -2 58 -22z m28 -3 c10 -12 10 -15 -4 -15 -9 0 -16 7 -16
15 0 8 2 15 4 15 2 0 9 -7 16 -15z m-116 -110 c8 -21 104 -21 112 0 4 8 15 15
25 15 15 0 19 -7 19 -40 l0 -40 -100 0 -100 0 0 40 c0 33 4 40 19 40 10 0 21
-7 25 -15z"/>
</g>
</svg>
