<svg id="svg" xmlns="http://www.w3.org/2000/svg" xmlns:xlink="http://www.w3.org/1999/xlink" width="400" height="356.26666666666665" viewBox="0, 0, 400,356.26666666666665"><g id="svgg"><path id="path0" d="M83.614 2.105 C 76.924 4.830,76.800 5.575,76.800 43.124 L 76.800 77.428 80.267 83.211 C 90.265 99.892,112.556 100.030,122.133 83.471 C 126.044 76.709,125.750 76.718,129.353 83.251 C 138.811 100.398,163.744 99.504,172.636 81.699 C 175.562 75.840,175.570 75.838,177.482 80.416 C 185.664 99.998,214.528 100.429,222.269 81.084 C 224.341 75.905,224.639 75.847,226.491 80.267 C 234.415 99.177,260.227 101.060,270.400 83.471 C 274.304 76.720,273.962 76.720,277.867 83.471 C 287.216 99.636,309.531 99.808,319.438 83.791 L 322.667 78.572 322.975 43.616 L 323.282 8.659 320.129 5.130 L 316.975 1.600 201.421 1.394 C 137.866 1.280,84.853 1.600,83.614 2.105 M122.207 93.789 C 117.744 98.448,109.458 101.657,101.600 101.770 L 94.934 101.867 94.933 158.133 L 94.933 214.400 106.133 214.400 L 117.333 214.400 117.333 170.133 L 117.333 125.867 141.333 125.867 L 165.333 125.867 165.333 170.133 L 165.333 214.400 235.200 214.400 L 305.067 214.400 305.067 158.133 L 305.066 101.867 298.400 101.781 C 290.560 101.681,282.791 98.626,277.600 93.603 L 274.133 90.248 270.667 93.603 C 259.849 104.071,239.844 104.448,228.864 94.390 L 224.834 90.699 220.534 94.380 C 209.013 104.241,188.343 103.967,178.626 93.824 L 175.668 90.737 171.944 94.007 C 160.120 104.388,139.579 104.283,129.526 93.789 C 127.880 92.072,126.234 90.667,125.867 90.667 C 125.500 90.667,123.853 92.072,122.207 93.789 M1.853 100.071 C 0.824 101.310,0.533 124.508,0.533 205.230 L 0.533 308.800 199.733 309.069 L 398.933 309.339 398.933 204.933 C 398.933 114.874,398.720 100.351,397.382 99.240 C 395.153 97.391,320.469 98.100,317.138 100.002 C 315.513 100.930,314.837 102.299,314.900 104.533 L 314.991 107.733 347.682 107.733 C 371.686 107.733,380.713 108.073,381.653 109.013 C 382.630 109.990,382.933 132.883,382.933 205.547 L 382.933 300.800 200.000 300.800 L 17.067 300.800 17.067 205.547 C 17.067 132.883,17.370 109.990,18.347 109.013 C 19.287 108.073,28.350 107.733,52.480 107.733 L 85.333 107.733 85.333 104.561 C 85.333 98.294,83.472 98.030,41.031 98.268 C 8.967 98.448,2.971 98.724,1.853 100.071 M70.400 232.000 L 70.400 244.267 200.000 244.267 L 329.600 244.267 329.600 232.000 L 329.600 219.733 200.000 219.733 L 70.400 219.733 70.400 232.000 M0.711 327.111 C -0.331 328.153,-0.108 342.247,1.028 347.147 C 3.072 355.961,-17.049 355.150,200.111 355.176 L 393.288 355.200 396.111 352.584 C 398.835 350.060,398.933 349.557,398.933 338.184 L 398.933 326.400 318.067 326.400 L 237.201 326.400 234.835 329.600 L 232.469 332.800 200.063 332.800 L 167.656 332.800 164.964 329.600 L 162.271 326.400 81.847 326.400 C 37.613 326.400,1.102 326.720,0.711 327.111 " stroke="none" fill="#000000" fill-rule="evenodd"></path></g></svg>