<?xml version="1.0" standalone="no"?>
<!DOCTYPE svg PUBLIC "-//W3C//DTD SVG 20010904//EN"
 "http://www.w3.org/TR/2001/REC-SVG-20010904/DTD/svg10.dtd">
<svg version="1.0" xmlns="http://www.w3.org/2000/svg"
 width="24.000000pt" height="24.000000pt" viewBox="0 0 24.000000 24.000000"
 preserveAspectRatio="xMidYMid meet">

<g transform="translate(0.000000,24.000000) scale(0.100000,-0.100000)"
fill="#000000" stroke="none">
<path d="M12 199 c-16 -64 -12 -67 86 -67 48 0 93 0 100 -1 7 -1 12 -17 12
-46 l0 -45 -54 0 -55 0 -4 43 c-3 36 -4 34 -5 -15 -2 -57 -2 -58 -32 -58 -30
0 -30 1 -32 58 l-2 57 -3 -55 c-3 -30 -10 -58 -16 -62 -7 -4 44 -7 113 -7 69
0 119 3 113 6 -15 6 -18 105 -4 132 6 11 6 33 -1 59 l-10 42 -98 0 -98 0 -10
-41z m78 -14 c0 -33 -4 -45 -15 -45 -16 0 -21 43 -9 74 12 31 24 16 24 -29z
m84 29 c12 -31 7 -74 -9 -74 -11 0 -15 12 -15 45 0 45 12 60 24 29z"/>
<path d="M150 86 c-15 -39 -12 -46 6 -13 9 16 13 31 10 34 -3 3 -10 -6 -16
-21z"/>
<path d="M177 93 c-4 -3 -7 -11 -7 -17 0 -6 5 -5 12 2 6 6 9 14 7 17 -3 3 -9
2 -12 -2z"/>
</g>
</svg>
